<svg width="43" height="43" viewBox="0 0 43 43" fill="none" xmlns="http://www.w3.org/2000/svg">
<path d="M31.5455 2H11.4545C8.94704 2 6.54224 2.9961 4.76917 4.76917C2.9961 6.54224 2 8.94704 2 11.4545V31.5455C2 34.053 2.9961 36.4578 4.76917 38.2308C6.54224 40.0039 8.94704 41 11.4545 41H27.6289C28.8708 41 30.1005 40.7554 31.2479 40.2801C32.3952 39.8048 33.4376 39.1081 34.3156 38.2298L38.2298 34.3156C39.1081 33.4376 39.8048 32.3952 40.2801 31.2479C40.7554 30.1005 41 28.8708 41 27.6289V11.4545C41 8.94704 40.0039 6.54224 38.2308 4.76917C36.4578 2.9961 34.053 2 31.5455 2Z" stroke="#F6FFDB" stroke-width="3" stroke-linecap="round" stroke-linejoin="round"/>
<path d="M41.0005 25.6364H32.7278C30.8472 25.6364 29.0436 26.3835 27.7138 27.7133C26.384 29.0431 25.6369 30.8467 25.6369 32.7273V41M11.4551 11.4546H29.1824M11.4551 20.9091H23.2733" stroke="#F6FFDB" stroke-width="3" stroke-linecap="round" stroke-linejoin="round"/>
</svg>
