<svg xmlns="http://www.w3.org/2000/svg" width="27" height="37" viewBox="0 0 27 37" fill="none">
<path d="M6.68182 28.2725C6.68182 28.2725 7.82046 22.5906 8.95455 22.5906C10.0886 22.5906 11.3864 28.2725 12.3636 28.2725C13.3409 28.2725 13.5796 25.9997 14.6364 25.9997C15.6932 25.9997 15.9182 28.2725 16.9091 28.2725C17.9 28.2725 20.3182 25.9997 20.3182 25.9997M6.68182 6.77246H20.3182M6.68182 11.7952H20.3182M6.68182 16.9088H20.3182" stroke="#495033" stroke-width="2" stroke-linecap="round" stroke-linejoin="round"/>
<path d="M22.5909 1H4.40909C2.5263 1 1 2.5263 1 4.40909V31.6818C1 33.5646 2.5263 35.0909 4.40909 35.0909H22.5909C24.4737 35.0909 26 33.5646 26 31.6818V4.40909C26 2.5263 24.4737 1 22.5909 1Z" stroke="#495033" stroke-width="2"/>
</svg>