<svg xmlns="http://www.w3.org/2000/svg" width="35" height="35" viewBox="0 0 35 35" fill="none">
<path d="M1 20.3004C1 20.3004 5.71424 18.2859 9.64277 18.2859C12.414 18.2859 15.457 19.4 17.4951 20.3185C19.0587 21.0225 19.9583 21.4672 20.3158 23.1447C20.5649 24.3099 19.7281 26.2521 18.5401 26.348L17.7033 26.4156M17.7033 26.4156C15.7846 26.4156 12.8147 25.8467 12.8147 25.8467M17.7033 26.4156C20.3645 26.4156 27.3699 25.1514 29.8527 24.687C30.4451 24.577 31.0588 24.4961 31.6221 24.7082C32.3308 24.9762 33.2815 25.6228 33.7357 27.1832C34.0908 28.4026 33.2383 29.5757 32.0543 30.0338C28.5814 31.3773 21.3396 34 17.7033 34C8.07136 34 1 31.5824 1 31.5824M22.3131 16.6987C22.3382 17.4239 22.7876 18.0478 23.5042 18.1578C23.9678 18.2285 24.5798 18.2859 25.3569 18.2859C25.9768 18.2904 26.5962 18.2476 27.2096 18.1578C27.9262 18.0478 28.3756 17.424 28.4007 16.6995C28.4298 15.8667 28.4636 14.5758 28.4832 12.7694C29.7935 12.7574 31.1037 12.7299 32.4133 12.6869C33.1378 12.6618 33.7616 12.2124 33.8716 11.4958C33.9423 11.0322 33.9997 10.4202 33.9997 9.6431C34.0042 9.02317 33.9614 8.40381 33.8716 7.7904C33.7616 7.07384 33.1378 6.62441 32.4133 6.59927C31.5805 6.5702 30.2896 6.53641 28.4832 6.51677C28.4711 5.20646 28.4436 3.89633 28.4007 2.58667C28.3756 1.86224 27.9262 1.23839 27.2096 1.1284C26.5962 1.03891 25.9768 0.996101 25.3569 1.00032C24.737 0.995797 24.1176 1.03861 23.5042 1.1284C22.7876 1.23839 22.3382 1.86224 22.3131 2.58667C22.284 3.41952 22.2502 4.71043 22.2306 6.51677C20.9203 6.52881 19.6101 6.55631 18.3005 6.59927C17.5761 6.62441 16.9522 7.07384 16.8422 7.7904C16.7715 8.25397 16.7141 8.86603 16.7141 9.6431C16.7141 10.4202 16.7707 11.033 16.8422 11.4958C16.9522 12.2124 17.5761 12.6618 18.3005 12.6869C19.1333 12.716 20.4242 12.7498 22.2306 12.7694C22.2502 14.5758 22.284 15.8675 22.3131 16.6995V16.6987Z" stroke="#495033" stroke-width="2" stroke-linecap="round" stroke-linejoin="round"/>
</svg>