<svg xmlns="http://www.w3.org/2000/svg" width="32" height="36" viewBox="0 0 32 36" fill="none">
<path d="M16 1C20.1438 1 23.5 4.38111 23.5 8.55556C23.5 12.73 20.1438 16.1111 16 16.1111C11.8562 16.1111 8.5 12.73 8.5 8.55556C8.5 4.38111 11.8562 1 16 1ZM23.5 20.9089C23.5 22.9111 22.975 27.5767 19.3938 32.79L17.875 23.6667L19.6375 20.1156C18.475 19.9833 17.2563 19.8889 16 19.8889C14.7437 19.8889 13.525 19.9833 12.3625 20.1156L14.125 23.6667L12.6062 32.79C9.025 27.5767 8.5 22.9111 8.5 20.9089C4.01875 22.2311 1 24.6111 1 27.4444V35H31V27.4444C31 24.6111 28 22.2311 23.5 20.9089Z" stroke="white" stroke-width="2"/>
</svg>