<svg xmlns="http://www.w3.org/2000/svg" width="45" height="45" viewBox="0 0 45 45" fill="none">
<path d="M1.5 26.0642C1.5 26.0642 7.49994 23.5002 12.4999 23.5002C16.0269 23.5002 19.8998 24.9182 22.4938 26.0872C24.4838 26.9832 25.6288 27.5492 26.0838 29.6841C26.4008 31.1671 25.3358 33.6391 23.8238 33.7611L22.7588 33.8471M22.7588 33.8471C20.3168 33.8471 16.5369 33.1231 16.5369 33.1231M22.7588 33.8471C26.1458 33.8471 35.0617 32.2381 38.2216 31.6471C38.9756 31.5071 39.7566 31.4041 40.4736 31.6741C41.3756 32.0151 42.5856 32.8381 43.1636 34.8241C43.6156 36.3761 42.5306 37.8691 41.0236 38.452C36.6037 40.162 27.3867 43.5 22.7588 43.5C10.4999 43.5 1.5 40.423 1.5 40.423M28.6257 21.4802C28.6577 22.4032 29.2297 23.1972 30.1417 23.3372C30.7317 23.4272 31.5107 23.5002 32.4997 23.5002C33.2887 23.506 34.077 23.4515 34.8577 23.3372C35.7697 23.1972 36.3417 22.4032 36.3737 21.4812C36.4107 20.4212 36.4537 18.7782 36.4787 16.4793C38.1463 16.4639 39.8138 16.4289 41.4806 16.3743C42.4026 16.3423 43.1966 15.7703 43.3366 14.8583C43.4266 14.2683 43.4996 13.4893 43.4996 12.5003C43.5053 11.7113 43.4509 10.923 43.3366 10.1423C43.1966 9.23034 42.4026 8.65834 41.4806 8.62634C40.4206 8.58934 38.7776 8.54634 36.4787 8.52134C36.4632 6.85367 36.4282 5.18624 36.3737 3.51939C36.3417 2.5974 35.7697 1.80341 34.8577 1.66341C34.0769 1.54953 33.2887 1.49504 32.4997 1.50041C31.7107 1.49465 30.9224 1.54914 30.1417 1.66341C29.2297 1.80341 28.6577 2.5974 28.6257 3.51939C28.5887 4.57938 28.5457 6.22237 28.5207 8.52134C26.8531 8.53667 25.1856 8.57167 23.5188 8.62634C22.5968 8.65834 21.8028 9.23034 21.6628 10.1423C21.5728 10.7323 21.4998 11.5113 21.4998 12.5003C21.4998 13.4893 21.5718 14.2693 21.6628 14.8583C21.8028 15.7703 22.5968 16.3423 23.5188 16.3743C24.5788 16.4113 26.2218 16.4543 28.5207 16.4793C28.5457 18.7782 28.5887 20.4222 28.6257 21.4812V21.4802Z" stroke="white" stroke-width="3" stroke-linecap="round" stroke-linejoin="round"/>
</svg>