<svg width="46" height="46" viewBox="0 0 46 46" fill="#000" xmlns="http://www.w3.org/2000/svg">
<path d="M2 26.5642C2 26.5642 7.99994 24.0002 12.9999 24.0002C16.5269 24.0002 20.3998 25.4182 22.9938 26.5872C24.9838 27.4832 26.1288 28.0492 26.5838 30.1841C26.9008 31.6671 25.8358 34.1391 24.3238 34.2611L23.2588 34.3471M23.2588 34.3471C20.8168 34.3471 17.0369 33.6231 17.0369 33.6231M23.2588 34.3471C26.6458 34.3471 35.5617 32.7381 38.7216 32.1471C39.4756 32.0071 40.2566 31.9041 40.9736 32.1741C41.8756 32.5151 43.0856 33.3381 43.6636 35.3241C44.1156 36.8761 43.0306 38.3691 41.5236 38.952C37.1037 40.662 27.8867 44 23.2588 44C10.9999 44 2 40.923 2 40.923M29.1257 21.9802C29.1577 22.9032 29.7297 23.6972 30.6417 23.8372C31.2317 23.9272 32.0107 24.0002 32.9997 24.0002C33.7887 24.006 34.577 23.9515 35.3577 23.8372C36.2697 23.6972 36.8417 22.9032 36.8737 21.9812C36.9107 20.9212 36.9537 19.2782 36.9787 16.9793C38.6463 16.9639 40.3138 16.9289 41.9806 16.8743C42.9026 16.8423 43.6966 16.2703 43.8366 15.3583C43.9266 14.7683 43.9996 13.9893 43.9996 13.0003C44.0053 12.2113 43.9509 11.423 43.8366 10.6423C43.6966 9.73034 42.9026 9.15834 41.9806 9.12634C40.9206 9.08934 39.2776 9.04634 36.9787 9.02134C36.9632 7.35367 36.9282 5.68624 36.8737 4.01939C36.8417 3.0974 36.2697 2.30341 35.3577 2.16341C34.5769 2.04953 33.7887 1.99504 32.9997 2.00041C32.2107 1.99465 31.4224 2.04914 30.6417 2.16341C29.7297 2.30341 29.1577 3.0974 29.1257 4.01939C29.0887 5.07938 29.0457 6.72237 29.0207 9.02134C27.3531 9.03667 25.6856 9.07167 24.0188 9.12634C23.0968 9.15834 22.3028 9.73034 22.1628 10.6423C22.0728 11.2323 21.9998 12.0113 21.9998 13.0003C21.9998 13.9893 22.0718 14.7693 22.1628 15.3583C22.3028 16.2703 23.0968 16.8423 24.0188 16.8743C25.0788 16.9113 26.7218 16.9543 29.0207 16.9793C29.0457 19.2782 29.0887 20.9222 29.1257 21.9812V21.9802Z" stroke="white" stroke-width="3" stroke-linecap="round" stroke-linejoin="round"/>
</svg>
