<svg width="20" height="20" viewBox="0 0 20 20" fill="none" xmlns="http://www.w3.org/2000/svg">
<path fill-rule="evenodd" clip-rule="evenodd" d="M0.324514 0.324514C0.53257 0.116717 0.814599 0 1.10865 0C1.4027 0 1.68473 0.116717 1.89279 0.324514L19.6468 18.0786C19.7559 18.1801 19.8433 18.3026 19.9039 18.4388C19.9646 18.5749 19.9972 18.7218 19.9998 18.8708C20.0025 19.0198 19.975 19.1678 19.9192 19.306C19.8634 19.4441 19.7804 19.5696 19.675 19.675C19.5696 19.7804 19.4441 19.8634 19.306 19.9192C19.1678 19.975 19.0198 20.0025 18.8708 19.9998C18.7218 19.9972 18.5749 19.9646 18.4388 19.9039C18.3026 19.8433 18.1801 19.7559 18.0786 19.6468L0.324514 1.89279C0.116717 1.68473 0 1.4027 0 1.10865C0 0.814599 0.116717 0.53257 0.324514 0.324514Z" fill="black"/>
<path fill-rule="evenodd" clip-rule="evenodd" d="M19.6489 0.324514C19.8567 0.53257 19.9735 0.814599 19.9735 1.10865C19.9735 1.4027 19.8567 1.68473 19.6489 1.89279L1.89489 19.6468C1.68455 19.8428 1.40633 19.9495 1.11886 19.9445C0.831392 19.9394 0.557114 19.8229 0.353811 19.6196C0.150508 19.4163 0.0340535 19.1421 0.0289815 18.8546C0.0239094 18.5671 0.130616 18.2889 0.32662 18.0786L18.0807 0.324514C18.2887 0.116717 18.5707 0 18.8648 0C19.1589 0 19.4409 0.116717 19.6489 0.324514Z" fill="black"/>
</svg>
