<svg xmlns="http://www.w3.org/2000/svg" width="18" height="13" viewBox="0 0 18 13" fill="none">
<path d="M4.82562 3.97852L8.88422 6.91969L12.9428 3.97852" stroke="white" stroke-width="1.08824" stroke-linecap="round" stroke-linejoin="round"/>
<path d="M0.765625 10.7012V2.29786C0.765625 1.85212 0.936665 1.42463 1.24112 1.10944C1.54557 0.794258 1.9585 0.617188 2.38906 0.617188H15.3766C15.8071 0.617188 16.2201 0.794258 16.5245 1.10944C16.829 1.42463 17 1.85212 17 2.29786V10.7012C17 11.147 16.829 11.5744 16.5245 11.8896C16.2201 12.2048 15.8071 12.3819 15.3766 12.3819H2.38906C1.9585 12.3819 1.54557 12.2048 1.24112 11.8896C0.936665 11.5744 0.765625 11.147 0.765625 10.7012Z" stroke="white" stroke-width="1.08824"/>
</svg>