<svg xmlns="http://www.w3.org/2000/svg" width="16" height="17" viewBox="0 0 16 17" fill="none">
<path d="M9.29328 11.7242C9.43907 11.7912 9.60331 11.8065 9.75895 11.7676C9.91459 11.7287 10.0523 11.638 10.1495 11.5103L10.4001 11.1821C10.5316 11.0068 10.7021 10.8644 10.8982 10.7664C11.0942 10.6684 11.3104 10.6174 11.5295 10.6174H13.6472C14.0216 10.6174 14.3807 10.7661 14.6454 11.0309C14.9102 11.2956 15.0589 11.6547 15.0589 12.0292V14.1468C15.0589 14.5212 14.9102 14.8803 14.6454 15.1451C14.3807 15.4098 14.0216 15.5586 13.6472 15.5586C10.2774 15.5586 7.04557 14.2199 4.66275 11.8371C2.27994 9.45428 0.941284 6.22249 0.941284 2.85268C0.941284 2.47826 1.09002 2.11917 1.35478 1.85441C1.61954 1.58966 1.97863 1.44092 2.35305 1.44092H4.4707C4.84512 1.44092 5.20421 1.58966 5.46896 1.85441C5.73372 2.11917 5.88246 2.47826 5.88246 2.85268V4.97033C5.88246 5.1895 5.83143 5.40566 5.73342 5.60169C5.6354 5.79772 5.49309 5.96824 5.31775 6.09974L4.9874 6.34751C4.85781 6.44646 4.76647 6.58721 4.7289 6.74587C4.69133 6.90453 4.70984 7.0713 4.78128 7.21786C5.746 9.17729 7.33264 10.762 9.29328 11.7242Z" stroke="white" stroke-width="1.5" stroke-linecap="round" stroke-linejoin="round"/>
</svg>