<svg width="43" height="43" viewBox="0 0 43 43" fill="none" xmlns="http://www.w3.org/2000/svg">
<path d="M11.75 4.60912C14.7129 2.89454 18.0767 1.99438 21.5 2.00003C32.2698 2.00003 41 10.7302 41 21.5C41 32.2699 32.2698 41 21.5 41C10.7301 41 2 32.2699 2 21.5C2 17.9491 2.94965 14.6165 4.6091 11.75" stroke="white" stroke-width="3" stroke-linecap="round"/>
<path d="M27.0146 35.2884C26.2911 37.1 25.4312 38.5352 24.4854 39.516C23.5377 40.4949 22.5237 41 21.5 41C20.4762 41 19.4622 40.4949 18.5165 39.516C17.5688 38.5352 16.7088 37.098 15.9854 35.2884C15.26 33.4769 14.6847 31.3299 14.2928 28.9626C13.8929 26.4953 13.6946 23.9995 13.7 21.5C13.7 18.9396 13.9008 16.4027 14.2928 14.0373C14.6847 11.672 15.26 9.52309 15.9854 7.71155C16.7088 5.9 17.5688 4.4648 18.5145 3.48395C19.4622 2.507 20.4762 2 21.5 2C22.5237 2 23.5377 2.50505 24.4835 3.48395C25.4312 4.4648 26.2911 5.90195 27.0146 7.71155C27.74 9.52309 28.3152 11.67 28.7052 14.0373C29.0991 16.4027 29.3 18.9396 29.3 21.5C29.3 24.0603 29.0972 26.5973 28.7052 28.9626M2 21.5H17.6M41 21.5H25.4" stroke="white" stroke-width="3" stroke-linecap="round"/>
</svg>
