<svg width="59" height="41" viewBox="0 0 59 41" fill="none" xmlns="http://www.w3.org/2000/svg">
<path d="M23.4225 4.39541L4.00011 38.0716H42.8449L38.1551 29.9381C39.4539 30.6137 40.8572 31.0656 42.3061 31.2749L46.6488 38.8037C46.7774 39.0264 46.8451 39.279 46.845 39.5362C46.845 39.7933 46.7772 40.0459 46.6485 40.2685C46.5198 40.4912 46.3348 40.676 46.112 40.8044C45.8892 40.9328 45.6365 41.0002 45.3794 41H1.46415C1.20713 41 0.954646 40.9323 0.732067 40.8038C0.509489 40.6753 0.324659 40.4905 0.196154 40.2679C0.0676497 40.0453 -1.63232e-06 39.7928 0 39.5358C1.63238e-06 39.2788 0.067656 39.0263 0.196163 38.8037L22.1545 0.732027C22.283 0.509461 22.4679 0.324641 22.6904 0.196144C22.913 0.0676475 23.1655 0 23.4225 0C23.6795 0 23.932 0.0676475 24.1546 0.196144C24.3771 0.324641 24.562 0.509461 24.6905 0.732027L32.0407 13.4748C31.4967 14.8362 31.1863 16.2797 31.1227 17.7444L23.4225 4.39541Z" fill="#F6FFDB"/>
<path fill-rule="evenodd" clip-rule="evenodd" d="M40.2354 27.6844C41.4866 28.2136 42.8317 28.485 44.1902 28.4824C46.5346 28.4867 48.8075 27.6756 50.6194 26.188L56.3619 31.929L58.5699 29.7211L52.7073 23.8585C53.8409 22.1104 54.4092 20.0558 54.335 17.9737C54.2608 15.8915 53.5477 13.8826 52.2925 12.2197C51.0373 10.5567 49.3008 9.3203 47.3187 8.67819C45.3367 8.03609 43.205 8.01942 41.2132 8.63044C39.2213 9.24147 37.4657 10.4506 36.1847 12.0937C34.9036 13.7368 34.1592 15.7343 34.0524 17.815C33.9456 19.8958 34.4817 21.959 35.5878 23.7246C36.694 25.4902 38.3166 26.8727 40.2354 27.6844ZM37.1621 18.3312C37.1621 20.1951 37.9026 21.9828 39.2206 23.3008C40.5386 24.6188 42.3262 25.3593 44.1902 25.3593C46.0541 25.3593 47.8418 24.6188 49.1598 23.3008C50.4778 21.9828 51.2183 20.1951 51.2183 18.3312C51.2183 16.4672 50.4778 14.6796 49.1598 13.3616C47.8418 12.0435 46.0541 11.3031 44.1902 11.3031C42.3262 11.3031 40.5386 12.0435 39.2206 13.3616C37.9026 14.6796 37.1621 16.4672 37.1621 18.3312Z" fill="#F6FFDB"/>
<path d="M21.5977 29.3606H25.2581V33.021H21.5977V29.3606ZM23.4279 14.7114C22.4176 14.7114 21.5977 15.5314 21.5977 16.5417V24.5947C21.5977 25.0801 21.7905 25.5456 22.1337 25.8888C22.477 26.2321 22.9425 26.4249 23.4279 26.4249C23.9133 26.4249 24.3788 26.2321 24.7221 25.8888C25.0653 25.5456 25.2581 25.0801 25.2581 24.5947V16.5417C25.2581 15.5314 24.4382 14.7114 23.4279 14.7114Z" fill="#F6FFDB"/>
</svg>
