<svg xmlns="http://www.w3.org/2000/svg" width="31" height="32" viewBox="0 0 31 32" fill="none">
<path d="M6.64286 8.82759C5.76697 8.82759 4.91075 8.56872 4.18247 8.08373C3.4542 7.59873 2.88658 6.9094 2.55139 6.10288C2.2162 5.29636 2.1285 4.4089 2.29938 3.55271C2.47026 2.69651 2.89204 1.91005 3.51138 1.29277C4.13073 0.675492 4.91983 0.255119 5.77889 0.0848118C6.63794 -0.0854954 7.52838 0.00191241 8.3376 0.335982C9.14681 0.670051 9.83846 1.23578 10.3251 1.96162C10.8117 2.68747 11.0714 3.54083 11.0714 4.41379C11.0714 5.58441 10.6048 6.70707 9.77433 7.53482C8.94381 8.36256 7.81739 8.82759 6.64286 8.82759ZM6.64286 2.2069C6.20491 2.2069 5.7768 2.33633 5.41267 2.57883C5.04853 2.82132 4.76472 3.16599 4.59712 3.56925C4.42953 3.97251 4.38568 4.41624 4.47112 4.84434C4.55656 5.27243 4.76745 5.66567 5.07712 5.97431C5.38679 6.28295 5.78134 6.49313 6.21087 6.57829C6.6404 6.66344 7.08562 6.61974 7.49023 6.4527C7.89483 6.28567 8.24066 6.0028 8.48397 5.63988C8.72728 5.27696 8.85714 4.85028 8.85714 4.41379C8.85714 3.82849 8.62385 3.26716 8.20859 2.85328C7.79333 2.43941 7.23012 2.2069 6.64286 2.2069ZM24.3571 8.82759C23.4813 8.82759 22.625 8.56872 21.8968 8.08373C21.1685 7.59873 20.6009 6.9094 20.2657 6.10288C19.9305 5.29636 19.8428 4.4089 20.0137 3.55271C20.1845 2.69651 20.6063 1.91005 21.2257 1.29277C21.845 0.675492 22.6341 0.255119 23.4932 0.0848118C24.3522 -0.0854954 25.2427 0.00191241 26.0519 0.335982C26.8611 0.670051 27.5527 1.23578 28.0394 1.96162C28.526 2.68747 28.7857 3.54083 28.7857 4.41379C28.7857 5.58441 28.3191 6.70707 27.4886 7.53482C26.6581 8.36256 25.5317 8.82759 24.3571 8.82759ZM24.3571 2.2069C23.9192 2.2069 23.4911 2.33633 23.1269 2.57883C22.7628 2.82132 22.479 3.16599 22.3114 3.56925C22.1438 3.97251 22.1 4.41624 22.1854 4.84434C22.2708 5.27243 22.4817 5.66567 22.7914 5.97431C23.1011 6.28295 23.4956 6.49313 23.9252 6.57829C24.3547 6.66344 24.7999 6.61974 25.2045 6.4527C25.6091 6.28567 25.9549 6.0028 26.1983 5.63988C26.4416 5.27696 26.5714 4.85028 26.5714 4.41379C26.5714 3.82849 26.3381 3.26716 25.9229 2.85328C25.5076 2.43941 24.9444 2.2069 24.3571 2.2069ZM26.5714 32H22.1429C21.5556 32 20.9924 31.7675 20.5771 31.3536C20.1619 30.9397 19.9286 30.3784 19.9286 29.7931V22.069H22.1429V29.7931H26.5714V19.8621H28.7857V13.2414C28.7857 12.9487 28.6691 12.6681 28.4614 12.4611C28.2538 12.2542 27.9722 12.1379 27.6786 12.1379H20.5707L15.5 20.9655L10.4293 12.1379H3.32143C3.0278 12.1379 2.74619 12.2542 2.53856 12.4611C2.33093 12.6681 2.21429 12.9487 2.21429 13.2414V19.8621H4.42857V29.7931H8.85714V22.069H11.0714V29.7931C11.0714 30.3784 10.8381 30.9397 10.4229 31.3536C10.0076 31.7675 9.44441 32 8.85714 32H4.42857C3.84131 32 3.27809 31.7675 2.86283 31.3536C2.44758 30.9397 2.21429 30.3784 2.21429 29.7931V22.069C1.62702 22.069 1.06381 21.8365 0.648549 21.4226C0.23329 21.0087 0 20.4474 0 19.8621V13.2414C0 12.3634 0.349935 11.5214 0.972824 10.9006C1.59571 10.2798 2.44053 9.93104 3.32143 9.93104H11.7136L15.5 16.5517L19.2864 9.93104H27.6786C28.5595 9.93104 29.4043 10.2798 30.0272 10.9006C30.6501 11.5214 31 12.3634 31 13.2414V19.8621C31 20.4474 30.7667 21.0087 30.3514 21.4226C29.9362 21.8365 29.373 22.069 28.7857 22.069V29.7931C28.7857 30.3784 28.5524 30.9397 28.1372 31.3536C27.7219 31.7675 27.1587 32 26.5714 32Z" fill="white"/>
</svg>