<svg xmlns="http://www.w3.org/2000/svg" width="12" height="17" viewBox="0 0 12 17" fill="none">
<path d="M6.0006 14.9707C6.38619 14.9707 7.3056 13.9233 8.12795 12.0483C8.96266 10.1477 9.53001 7.80067 9.53001 6.45862C9.53001 4.31538 7.92678 2.61773 6.0006 2.61773C4.07442 2.61773 2.47119 4.31538 2.47119 6.45862C2.47119 7.79979 3.03854 10.1477 3.87325 12.0483C4.69472 13.9233 5.61501 14.9707 6.0006 14.9707ZM6.0006 16.7354C3.07648 16.7354 0.706482 9.55479 0.706482 6.45862C0.706482 3.36244 3.07648 0.853027 6.0006 0.853027C8.92472 0.853027 11.2947 3.36244 11.2947 6.45862C11.2947 9.55479 8.92472 16.7354 6.0006 16.7354ZM6.0006 7.91185C6.46863 7.91185 6.91749 7.72593 7.24844 7.39498C7.57938 7.06403 7.76531 6.61517 7.76531 6.14715C7.76531 5.67912 7.57938 5.23026 7.24844 4.89931C6.91749 4.56836 6.46863 4.38244 6.0006 4.38244C5.53257 4.38244 5.08371 4.56836 4.75276 4.89931C4.42182 5.23026 4.23589 5.67912 4.23589 6.14715C4.23589 6.61517 4.42182 7.06403 4.75276 7.39498C5.08371 7.72593 5.53257 7.91185 6.0006 7.91185Z" fill="white"/>
</svg>