<svg xmlns="http://www.w3.org/2000/svg" width="34" height="29" viewBox="0 0 34 29" fill="none">
<path d="M12.1477 4.8293C12.1477 3.54849 12.6589 2.32014 13.5689 1.41447C14.4789 0.5088 15.7131 0 17 0C18.2869 0 19.5211 0.5088 20.4311 1.41447C21.3411 2.32014 21.8523 3.54849 21.8523 4.8293C21.8523 6.11012 21.3411 7.33847 20.4311 8.24414C19.5211 9.14981 18.2869 9.65861 17 9.65861C15.7131 9.65861 14.4789 9.14981 13.5689 8.24414C12.6589 7.33847 12.1477 6.11012 12.1477 4.8293ZM17 2.41707C16.6817 2.41707 16.3665 2.47946 16.0725 2.60069C15.7784 2.72192 15.5112 2.8996 15.2862 3.1236C15.0611 3.34759 14.8826 3.61352 14.7608 3.90618C14.639 4.19885 14.5763 4.51253 14.5763 4.8293C14.5763 5.14608 14.639 5.45976 14.7608 5.75243C14.8826 6.04509 15.0611 6.31102 15.2862 6.53501C15.5112 6.75901 15.7784 6.93669 16.0725 7.05792C16.3665 7.17915 16.6817 7.24154 17 7.24154C17.6428 7.24154 18.2593 6.98739 18.7138 6.53501C19.1684 6.08263 19.4237 5.46907 19.4237 4.8293C19.4237 4.18954 19.1684 3.57598 18.7138 3.1236C18.2593 2.67121 17.6428 2.41707 17 2.41707ZM24.2857 6.03784C24.2857 5.56172 24.3799 5.09026 24.563 4.65038C24.7461 4.2105 25.0144 3.81082 25.3527 3.47415C25.691 3.13748 26.0925 2.87042 26.5345 2.68822C26.9765 2.50601 27.4502 2.41224 27.9286 2.41224C28.407 2.41224 28.8807 2.50601 29.3226 2.68822C29.7646 2.87042 30.1662 3.13748 30.5045 3.47415C30.8427 3.81082 31.1111 4.2105 31.2941 4.65038C31.4772 5.09026 31.5714 5.56172 31.5714 6.03784C31.5714 6.99941 31.1876 7.9216 30.5045 8.60153C29.8213 9.28146 28.8947 9.66344 27.9286 9.66344C26.9624 9.66344 26.0359 9.28146 25.3527 8.60153C24.6695 7.9216 24.2857 6.99941 24.2857 6.03784ZM27.9286 4.8293C27.6065 4.8293 27.2977 4.95663 27.0699 5.18328C26.8422 5.40992 26.7143 5.71732 26.7143 6.03784C26.7143 6.35836 26.8422 6.66576 27.0699 6.8924C27.2977 7.11905 27.6065 7.24637 27.9286 7.24637C28.2506 7.24637 28.5595 7.11905 28.7872 6.8924C29.0149 6.66576 29.1429 6.35836 29.1429 6.03784C29.1429 5.71732 29.0149 5.40992 28.7872 5.18328C28.5595 4.95663 28.2506 4.8293 27.9286 4.8293ZM6.07143 2.41224C5.10528 2.41224 4.17871 2.79422 3.49554 3.47415C2.81237 4.15408 2.42857 5.07627 2.42857 6.03784C2.42857 6.99941 2.81237 7.9216 3.49554 8.60153C4.17871 9.28146 5.10528 9.66344 6.07143 9.66344C7.03758 9.66344 7.96415 9.28146 8.64732 8.60153C9.33049 7.9216 9.71429 6.99941 9.71429 6.03784C9.71429 5.07627 9.33049 4.15408 8.64732 3.47415C7.96415 2.79422 7.03758 2.41224 6.07143 2.41224ZM4.85714 6.03784C4.85714 5.71732 4.98508 5.40992 5.2128 5.18328C5.44052 4.95663 5.74938 4.8293 6.07143 4.8293C6.39348 4.8293 6.70234 4.95663 6.93006 5.18328C7.15778 5.40992 7.28572 5.71732 7.28572 6.03784C7.28572 6.35836 7.15778 6.66576 6.93006 6.8924C6.70234 7.11905 6.39348 7.24637 6.07143 7.24637C5.74938 7.24637 5.44052 7.11905 5.2128 6.8924C4.98508 6.66576 4.85714 6.35836 4.85714 6.03784ZM7.93657 12.0805C7.51023 12.8154 7.28575 13.649 7.28572 14.4976H2.42857V20.5403C2.42838 21.1415 2.5784 21.7333 2.86515 22.2625C3.1519 22.7916 3.56636 23.2415 4.07123 23.5716C4.5761 23.9017 5.15553 24.1017 5.75736 24.1535C6.35918 24.2054 6.96451 24.1074 7.51886 23.8686C7.69857 24.6686 7.98029 25.4324 8.34457 26.1454C7.42284 26.5158 6.42384 26.6553 5.43528 26.5517C4.44673 26.448 3.49886 26.1044 2.67493 25.5509C1.851 24.9975 1.1762 24.2512 0.709805 23.3775C0.243406 22.5038 -0.000330402 21.5296 3.36146e-07 20.5403V14.4976C3.36146e-07 13.8565 0.255867 13.2417 0.711312 12.7885C1.16676 12.3352 1.78447 12.0805 2.42857 12.0805H7.93657ZM25.6554 26.1454C26.5772 26.5158 27.5762 26.6553 28.5647 26.5517C29.5533 26.448 30.5011 26.1044 31.3251 25.5509C32.149 24.9975 32.8238 24.2512 33.2902 23.3775C33.7566 22.5038 34.0003 21.5296 34 20.5403V14.4976C34 13.8565 33.7441 13.2417 33.2887 12.7885C32.8332 12.3352 32.2155 12.0805 31.5714 12.0805H26.0634C26.4763 12.7911 26.7143 13.6154 26.7143 14.4976H31.5714V20.5403C31.5716 21.1415 31.4216 21.7333 31.1349 22.2625C30.8481 22.7916 30.4336 23.2415 29.9288 23.5716C29.4239 23.9017 28.8445 24.1017 28.2426 24.1535C27.6408 24.2054 27.0355 24.1074 26.4811 23.8686C26.2966 24.671 26.0213 25.43 25.6554 26.1454ZM12.1429 12.0781C11.4988 12.0781 10.881 12.3328 10.4256 12.786C9.97015 13.2393 9.71429 13.8541 9.71429 14.4952V21.7488C9.71429 23.6719 10.4819 25.5163 11.8482 26.8762C13.2146 28.236 15.0677 29 17 29C18.9323 29 20.7854 28.236 22.1518 26.8762C23.5181 25.5163 24.2857 23.6719 24.2857 21.7488V14.4976C24.2857 13.8565 24.0298 13.2417 23.5744 12.7885C23.119 12.3352 22.5012 12.0805 21.8571 12.0805L12.1429 12.0781ZM12.1429 14.4952H21.8571V21.7488C21.8571 23.0309 21.3454 24.2605 20.4345 25.167C19.5236 26.0736 18.2882 26.5829 17 26.5829C15.7118 26.5829 14.4764 26.0736 13.5655 25.167C12.6546 24.2605 12.1429 23.0309 12.1429 21.7488V14.4952Z" fill="white"/>
</svg>