<svg xmlns="http://www.w3.org/2000/svg" width="21" height="21" viewBox="0 0 21 21" fill="none">
<path d="M12.2404 14.8396C12.4366 14.9297 12.6576 14.9503 12.8671 14.898C13.0766 14.8456 13.262 14.7235 13.3927 14.5517L13.73 14.11C13.907 13.874 14.1365 13.6825 14.4003 13.5506C14.6641 13.4187 14.955 13.35 15.25 13.35H18.1C18.6039 13.35 19.0872 13.5502 19.4435 13.9065C19.7998 14.2628 20 14.7461 20 15.25V18.1C20 18.6039 19.7998 19.0872 19.4435 19.4435C19.0872 19.7998 18.6039 20 18.1 20C13.5648 20 9.21535 18.1984 6.00847 14.9915C2.8016 11.7847 1 7.4352 1 2.9C1 2.39609 1.20018 1.91282 1.5565 1.5565C1.91282 1.20018 2.39609 1 2.9 1H5.75C6.25391 1 6.73718 1.20018 7.0935 1.5565C7.44982 1.91282 7.65 2.39609 7.65 2.9V5.75C7.65 6.04497 7.58132 6.33588 7.44941 6.59971C7.3175 6.86353 7.12597 7.09302 6.89 7.27L6.4454 7.60345C6.271 7.73662 6.14807 7.92606 6.0975 8.13958C6.04693 8.35311 6.07184 8.57756 6.168 8.7748C7.46635 11.4119 9.6017 13.5446 12.2404 14.8396Z" fill="#5C6446" stroke="#5C6446" stroke-width="1.5" stroke-linecap="round" stroke-linejoin="round"/>
</svg>