<svg width="47" height="47" viewBox="0 0 47 47" fill="none" xmlns="http://www.w3.org/2000/svg">
<path d="M34.2411 17.0779H34.2583M34.2583 12.7694V7.38575M13.8285 45H7.84278C7.14831 45 6.44955 44.9011 5.81098 44.6281C3.73403 43.7358 2.67835 42.5555 2.18814 41.818C2.0551 41.6137 1.98973 41.3728 2.00131 41.1293C2.01289 40.8858 2.10082 40.6521 2.25264 40.4614C4.6607 37.2622 10.2422 35.3315 13.8285 35.3315M13.8393 45H19.8229C20.5195 45 21.2161 44.9011 21.8547 44.6281C23.9338 43.7358 24.9873 42.5555 25.4797 41.818C25.6127 41.6137 25.6781 41.3728 25.6665 41.1293C25.6549 40.8858 25.567 40.6521 25.4152 40.4614C23.0071 37.2622 17.4256 35.3315 13.8393 35.3315M45 12.3028C45 17.9917 40.1839 22.6056 34.2411 22.6056C33.5417 22.6056 32.8479 22.5411 32.1599 22.4121C31.6654 22.3197 31.4203 22.2745 31.2461 22.3003C31.0741 22.3261 30.829 22.4551 30.3431 22.7174C28.9513 23.4594 27.3494 23.7087 25.7979 23.4248C26.387 22.6981 26.7869 21.8273 26.9654 20.8942C27.0729 20.3245 26.8063 19.7698 26.4063 19.3634C24.539 17.4873 23.4881 14.9497 23.4823 12.3028C23.4823 6.6139 28.2984 2 34.2411 2C40.1839 2 45 6.6139 45 12.3028ZM19.8121 24.1214C19.8098 25.7035 19.1794 27.2201 18.0594 28.3376C16.9394 29.4552 15.4215 30.0823 13.8393 30.0812C13.0555 30.0823 12.2791 29.929 11.5546 29.6301C10.83 29.3312 10.1714 28.8926 9.61636 28.3391C9.06133 27.7857 8.62074 27.1284 8.31975 26.4047C8.01876 25.681 7.86326 24.9051 7.86213 24.1214C7.86298 23.3374 8.01827 22.5613 8.31913 21.8373C8.62 21.1134 9.06054 20.4558 9.6156 19.9022C10.1707 19.3485 10.8294 18.9097 11.5541 18.6106C12.2788 18.3116 13.0553 18.1583 13.8393 18.1594C15.4219 18.1583 16.9401 18.7857 18.0602 19.9037C19.1802 21.0217 19.8104 22.5388 19.8121 24.1214Z" stroke="white" stroke-width="3" stroke-linecap="round" stroke-linejoin="round"/>
</svg>
