<svg xmlns="http://www.w3.org/2000/svg" width="39" height="29" viewBox="0 0 39 29" fill="none">
<path d="M6.70312 1H32.2969C33.8122 1 35.2641 1.5965 36.333 2.65625C37.4015 3.71565 37.9999 5.15104 38 6.64551V22.3545C37.9999 23.849 37.4015 25.2844 36.333 26.3438C35.2641 27.4035 33.8122 28 32.2969 28H6.70312C5.18781 28 3.73589 27.4035 2.66699 26.3438C1.59846 25.2844 1.00009 23.849 1 22.3545V6.64551L1.00684 6.36621C1.07657 4.97322 1.66521 3.64947 2.66699 2.65625C3.6691 1.66271 5.00792 1.07627 6.41992 1.00684L6.70312 1ZM6.70312 1.41699C5.30935 1.41699 3.97056 1.96562 2.98242 2.94531C1.99421 3.9252 1.43759 5.25609 1.4375 6.64551V22.3545C1.43768 25.2492 3.80443 27.583 6.70312 27.583H32.2969C33.6906 27.583 35.0294 27.0344 36.0176 26.0547C37.0058 25.0748 37.5624 23.7439 37.5625 22.3545V6.64551C37.5624 5.25609 37.0058 3.9252 36.0176 2.94531C35.0294 1.96562 33.6906 1.41699 32.2969 1.41699H6.70312ZM10.9785 8.25098C11.0174 8.25272 11.0549 8.26354 11.0869 8.2832V8.28418C11.1187 8.30367 11.1439 8.32996 11.1611 8.36035C11.1697 8.37552 11.1763 8.39183 11.1807 8.4082L11.1875 8.45898V20.542C11.1874 20.5942 11.1667 20.6459 11.127 20.6855C11.0866 20.7256 11.0295 20.75 10.9688 20.75C10.908 20.75 10.8509 20.7256 10.8105 20.6855C10.7708 20.6459 10.7501 20.5942 10.75 20.542V8.80176L9.30566 9.51758L8.63281 9.85059L8.625 9.85449C8.59891 9.86768 8.5699 9.8766 8.54004 9.87891C8.51024 9.88115 8.48027 9.87731 8.45215 9.86816C8.42404 9.85902 8.39853 9.84456 8.37695 9.82617C8.35532 9.80768 8.33838 9.7849 8.32617 9.76074C8.31401 9.73664 8.30654 9.71078 8.30469 9.68457C8.30287 9.6584 8.3059 9.63163 8.31445 9.60645C8.32302 9.58136 8.33713 9.55791 8.35547 9.53711C8.3739 9.51625 8.39663 9.49818 8.42285 9.48535L8.42969 9.48242L10.8672 8.27441V8.27344C10.8841 8.26504 10.9023 8.25882 10.9209 8.25488L10.9785 8.25098ZM28.041 8.25C28.0799 8.25171 28.1174 8.26359 28.1494 8.2832C28.1814 8.30278 28.2064 8.32974 28.2236 8.36035C28.2408 8.39081 28.2499 8.42422 28.25 8.45801V20.542C28.2499 20.5942 28.2292 20.6459 28.1895 20.6855C28.1491 20.7256 28.092 20.75 28.0312 20.75C27.9705 20.75 27.9134 20.7256 27.873 20.6855C27.8333 20.6459 27.8126 20.5942 27.8125 20.542V8.80957L26.3711 9.51855L25.6982 9.84961L25.6875 9.85449C25.6614 9.86767 25.6324 9.8766 25.6025 9.87891C25.5727 9.88115 25.5428 9.87731 25.5146 9.86816C25.4865 9.85902 25.461 9.84456 25.4395 9.82617C25.4178 9.80769 25.4009 9.7849 25.3887 9.76074C25.3765 9.73663 25.369 9.71077 25.3672 9.68457C25.3654 9.6584 25.3684 9.63162 25.377 9.60645C25.3855 9.58135 25.3996 9.55791 25.418 9.53711C25.4364 9.51625 25.4591 9.49818 25.4854 9.48535L25.4922 9.48242L27.9297 8.27441L27.9307 8.27344C27.9644 8.25676 28.0024 8.24836 28.041 8.25ZM18.2812 17.917C18.342 17.917 18.3991 17.9404 18.4395 17.9805C18.4795 18.0202 18.5 18.0726 18.5 18.125C18.5 18.1774 18.4795 18.2298 18.4395 18.2695C18.3991 18.3096 18.342 18.333 18.2812 18.333C18.2205 18.333 18.1634 18.3096 18.123 18.2695C18.083 18.2298 18.0625 18.1774 18.0625 18.125C18.0625 18.0726 18.083 18.0202 18.123 17.9805C18.1634 17.9404 18.2205 17.917 18.2812 17.917ZM18.2812 10.667C18.342 10.667 18.3991 10.6904 18.4395 10.7305C18.4795 10.7702 18.5 10.8226 18.5 10.875C18.5 10.9274 18.4795 10.9798 18.4395 11.0195C18.3991 11.0596 18.342 11.083 18.2812 11.083C18.2205 11.083 18.1634 11.0596 18.123 11.0195C18.083 10.9798 18.0625 10.9274 18.0625 10.875C18.0625 10.8226 18.083 10.7702 18.123 10.7305C18.1634 10.6904 18.2205 10.667 18.2812 10.667Z" stroke="#495033" stroke-width="2"/>
</svg>