<svg width="50" height="50" viewBox="0 0 50 50" fill="none" xmlns="http://www.w3.org/2000/svg">
<path d="M38.9771 7.28121C35.0354 5.32079 30.2083 4.16663 25 4.16663C19.7917 4.16663 14.9667 5.32079 11.0229 7.28121C9.08958 8.24371 8.12292 8.72496 7.1875 10.2375C6.25208 11.75 6.25 13.2145 6.25 16.1416V23.4125C6.25 35.252 15.7125 41.8354 21.1938 44.6541C22.7229 45.4395 23.4854 45.8333 25 45.8333C26.5146 45.8333 27.2771 45.4395 28.8062 44.6541C34.2854 41.8333 43.75 35.25 43.75 23.4104V16.1416C43.75 13.2145 43.75 11.75 42.8125 10.2375C41.875 8.72496 40.9104 8.24371 38.9771 7.28121Z" stroke="#F6FFDB" stroke-width="3" stroke-linecap="round" stroke-linejoin="round"/>
<path d="M24.9993 18.7499V20.8333M22.916 19.7916C22.916 20.3441 23.1355 20.874 23.5262 21.2647C23.9169 21.6554 24.4468 21.8749 24.9993 21.8749C25.5519 21.8749 26.0818 21.6554 26.4725 21.2647C26.8632 20.874 27.0827 20.3441 27.0827 19.7916C27.0827 19.2391 26.8632 18.7091 26.4725 18.3184C26.0818 17.9277 25.5519 17.7083 24.9993 17.7083C24.4468 17.7083 23.9169 17.9277 23.5262 18.3184C23.1355 18.7091 22.916 19.2391 22.916 19.7916Z" stroke="#F6FFDB" stroke-width="3" stroke-linecap="round" stroke-linejoin="round"/>
<path d="M26.5625 29.1667H23.4375L25 21.875L26.5625 29.1667Z" stroke="#F6FFDB" stroke-width="3" stroke-linecap="round" stroke-linejoin="round"/>
</svg>
